<svg width="152" height="40" viewBox="0 0 152 40" fill="none" xmlns="http://www.w3.org/2000/svg">
<path d="M15.58 18.7C15.34 17.24 14.26 16.12 12.36 16.12C11.42 16.12 10.66 16.3 10.12 16.74L9.18 18.1C8.78 16.94 7.74 16.12 6.12 16.12C5.18 16.12 4.42 16.3 3.88 16.74L3.2 17.94V16.4H1.48V27H3.2V21.76C3.2 18.54 4.18 17.48 5.52 17.48C6.72 17.48 7.48 18.06 7.64 19.26C7.7 19.8 7.72 20.38 7.72 21.32V27H9.44V21.76C9.44 18.54 10.42 17.48 11.76 17.48C12.96 17.48 13.72 18.06 13.88 19.26C13.94 19.8 13.96 20.38 13.96 21.32V27H15.68V20.52C15.68 19.66 15.66 19.24 15.58 18.7ZM27.2894 21.4C27.2894 18.3 25.6694 16.12 22.7494 16.12C19.8494 16.12 17.7094 18.3 17.7094 21.74C17.7094 25.48 19.7694 27.28 22.5294 27.28C24.7094 27.28 26.7294 26.14 27.1494 23.58H25.3494C25.1094 25.1 23.9894 25.96 22.6094 25.96C21.0494 25.96 19.7294 25.02 19.5694 22.22H27.2494C27.2894 21.84 27.2894 21.56 27.2894 21.4ZM22.7094 17.44C24.4494 17.44 25.3894 18.7 25.5494 20.9H19.5894C19.7894 18.64 21.0294 17.44 22.7094 17.44ZM31.2059 12.3H29.4859V24.02C29.4859 24.6 29.4859 25.06 29.5059 25.42C29.5659 26.76 30.3059 27.08 31.3059 27.08C31.7059 27.08 32.1459 27.06 32.5259 27V25.76C31.5859 25.86 31.2659 25.64 31.2259 24.96C31.2059 24.62 31.2059 24.28 31.2059 23.96V12.3ZM38.6073 16.12C35.9473 16.12 33.6273 18.14 33.6273 21.72C33.6273 25.6 35.6673 27.28 38.3473 27.28C40.7073 27.28 42.4673 26.08 42.9873 23.62H41.1873C40.8273 25.16 39.8473 25.96 38.4473 25.96C36.8673 25.96 35.5073 24.68 35.5073 21.6C35.5073 18.74 36.9073 17.44 38.5673 17.44C39.9873 17.44 40.9073 18.26 41.2873 19.96H43.0873C42.7673 17.64 41.1473 16.12 38.6073 16.12ZM54.0133 19.22C53.8533 17.36 52.5533 16.12 50.2333 16.12C49.1533 16.12 48.3733 16.3 47.4733 17L46.8133 18.22V12.2H45.0933V27H46.8133V22.34C46.8133 18.72 48.2133 17.52 49.8733 17.48C51.5133 17.44 52.1933 18.4 52.2933 19.64C52.3333 20.18 52.3333 20.62 52.3333 21.16V27H54.0533V21.04C54.0533 20.18 54.0533 19.76 54.0133 19.22ZM57.8088 12.92C57.1888 12.92 56.7088 13.4 56.7088 14.02C56.7088 14.64 57.1888 15.12 57.8088 15.12C58.4288 15.12 58.9088 14.64 58.9088 14.02C58.9088 13.4 58.4288 12.92 57.8088 12.92ZM58.6688 27V16.4H56.9488V27H58.6688ZM66.0944 16.12C62.4944 16.12 60.8344 18.7 60.8344 21.7C60.8344 24.68 62.4944 27.28 66.0944 27.28C69.6944 27.28 71.3544 24.68 71.3544 21.7C71.3544 18.7 69.6944 16.12 66.0944 16.12ZM66.0944 25.96C63.9544 25.96 62.7144 24.18 62.7144 21.7C62.7144 19.2 63.9544 17.44 66.0944 17.44C68.2344 17.44 69.4744 19.2 69.4744 21.7C69.4744 24.18 68.2344 25.96 66.0944 25.96ZM77.5931 16.16C77.0931 16.16 76.5531 16.34 76.1131 16.64L75.1531 18.06V16.4H73.4331V27H75.1531V20.96C75.1531 18.54 76.5131 17.48 78.3131 17.6V16.3C78.1131 16.2 77.8731 16.16 77.5931 16.16ZM88.0056 16.2C86.5656 16.2 85.6256 16.56 84.6856 17.68L84.1256 18.88V12.3H83.6856V27H84.1256V24.6L84.7056 25.92C85.5656 26.88 86.4256 27.28 87.7656 27.28C90.3056 27.28 92.5456 25.38 92.5456 21.66C92.5456 18.46 90.7456 16.2 88.0056 16.2ZM87.7656 26.86C86.1256 26.86 84.1256 25.86 84.1256 22.42V21.24C84.1256 17.78 85.8856 16.62 87.9656 16.62C90.6256 16.62 92.0656 18.98 92.0656 21.74C92.0656 24.76 90.2856 26.86 87.7656 26.86ZM98.6845 16.2C95.7245 16.2 93.7445 18.42 93.7445 21.76C93.7445 25.08 95.7245 27.28 98.6845 27.28C101.645 27.28 103.625 25.08 103.625 21.76C103.625 18.42 101.645 16.2 98.6845 16.2ZM98.6845 26.86C96.4045 26.86 94.2245 25.28 94.2245 21.76C94.2245 18.22 96.4045 16.62 98.6845 16.62C100.965 16.62 103.145 18.22 103.145 21.76C103.145 25.28 100.965 26.86 98.6845 26.86ZM113.319 16.48H112.879V22.72C112.879 25.52 111.079 26.86 109.159 26.86C107.159 26.86 106.179 25.66 105.979 23.88C105.919 23.34 105.899 22.88 105.899 22.14V16.48H105.459V22.32C105.459 23.18 105.479 23.5 105.539 24.04C105.759 26.1 107.039 27.28 109.159 27.28C110.459 27.28 111.679 26.74 112.459 25.64L112.879 24.6V27H113.319V16.48ZM119.406 16.2C118.426 16.2 117.586 16.7 117.026 17.54L116.606 18.74V16.48H116.166V27H116.606V21.24C116.606 17.76 117.946 16.46 119.866 16.62V16.22C119.726 16.2 119.566 16.2 119.406 16.2ZM129.284 12.3H128.844V18.88L128.264 17.56C127.404 16.6 126.544 16.2 125.204 16.2C122.664 16.2 120.424 18.1 120.424 21.82C120.424 25.02 122.224 27.28 124.964 27.28C126.404 27.28 127.344 26.92 128.284 25.8L128.844 24.6V27H129.284V12.3ZM125.004 26.86C122.344 26.86 120.904 24.5 120.904 21.74C120.904 18.72 122.684 16.62 125.204 16.62C126.844 16.62 128.844 17.62 128.844 21.06V22.24C128.844 25.7 127.084 26.86 125.004 26.86ZM132.343 13.94C132.123 13.94 131.943 14.12 131.943 14.34C131.943 14.56 132.123 14.74 132.343 14.74C132.563 14.74 132.743 14.56 132.743 14.34C132.743 14.12 132.563 13.94 132.343 13.94ZM132.563 27V16.48H132.123V27H132.563ZM143.184 19.44C142.964 17.38 141.684 16.2 139.564 16.2C138.264 16.2 137.044 16.74 136.264 17.84L135.844 18.88V16.48H135.404V27H135.844V20.76C135.844 17.96 137.644 16.62 139.564 16.62C141.564 16.62 142.544 17.82 142.744 19.6C142.804 20.14 142.824 20.6 142.824 21.34V27H143.264V21.16C143.264 20.3 143.244 19.98 143.184 19.44Z" fill="white"/>
</svg>
