<svg width="1250" height="262" viewBox="0 0 1250 262" fill="none" xmlns="http://www.w3.org/2000/svg">
<circle cx="82" cy="138" r="81.5" stroke="white"/>
<path d="M58.832 129.488C58.232 129.44 57.848 129.44 57.08 129.44H52.304V146H57.08C57.848 146 58.352 146 59.192 145.904C61.424 145.64 65.384 143.48 65.384 137.648C65.384 131.792 61.376 129.68 58.832 129.488ZM59.12 145.4C58.328 145.496 57.824 145.496 57.08 145.496H52.832V129.944H57.08C57.944 129.944 58.28 129.944 58.808 129.992C61.424 130.232 64.808 132.44 64.808 137.648C64.808 142.616 61.736 145.088 59.12 145.4ZM77.9291 139.352C77.9291 136.208 76.2491 133.04 72.6251 133.04C69.5051 133.04 67.0091 135.656 67.0091 139.64C67.0091 144.056 69.5051 146.336 72.4331 146.336C74.8331 146.336 76.9691 144.92 77.7371 142.136H77.2091C76.4651 144.704 74.4731 145.832 72.4811 145.832C70.1531 145.832 67.6571 144.176 67.5611 139.808H77.9051C77.9291 139.544 77.9291 139.448 77.9291 139.352ZM72.5771 133.544C74.7371 133.544 77.3051 134.936 77.4011 139.304H67.5611C67.6571 135.344 70.3451 133.544 72.5771 133.544ZM86.6047 133.472H81.3007V132.416C81.3007 132.056 81.3007 131.744 81.3487 131.216C81.4927 129.584 82.8607 128.096 86.0767 128.528V128.024C85.6447 127.928 85.4287 127.904 84.9487 127.904C82.5007 127.904 80.9887 129.32 80.8207 131.144C80.7727 131.648 80.7727 132.056 80.7727 132.416V133.472H79.4047V133.976H80.7727V146H81.3007V133.976H86.0767V146H86.6047V133.472ZM99.3603 136.928C99.0963 134.456 97.5603 133.04 95.0163 133.04C93.4563 133.04 91.9923 133.688 91.0563 135.008L90.5523 136.256V133.376H90.0243V146H90.5523V138.512C90.5523 135.152 92.7123 133.544 95.0163 133.544C97.4163 133.544 98.5923 134.984 98.8323 137.12C98.9043 137.768 98.9283 138.32 98.9283 139.208V146H99.4563V138.992C99.4563 137.96 99.4323 137.576 99.3603 136.928ZM112.687 139.352C112.687 136.208 111.007 133.04 107.383 133.04C104.263 133.04 101.767 135.656 101.767 139.64C101.767 144.056 104.263 146.336 107.191 146.336C109.591 146.336 111.727 144.92 112.495 142.136H111.967C111.223 144.704 109.231 145.832 107.239 145.832C104.911 145.832 102.415 144.176 102.319 139.808H112.663C112.687 139.544 112.687 139.448 112.687 139.352ZM107.335 133.544C109.495 133.544 112.063 134.936 112.159 139.304H102.319C102.415 135.344 105.103 133.544 107.335 133.544Z" fill="white"/>
<path d="M180 135.5H201M201 135.5L191 125.5M201 135.5L191 145.5" stroke="white"/>
<path d="M397 135.5H418M418 135.5L408 125.5M418 135.5L408 145.5" stroke="white"/>
<path d="M614 135.5H635M635 135.5L625 125.5M635 135.5L625 145.5" stroke="white"/>
<path d="M830 135.5H851M851 135.5L841 125.5M851 135.5L841 145.5" stroke="white"/>
<path d="M1047 135.5H1068M1068 135.5L1058 125.5M1068 135.5L1058 145.5" stroke="white"/>
<path d="M264.832 141.464C264.616 139.544 263.776 138.08 262.24 137.648C264.4 137.264 265.696 135.728 265.696 133.616C265.696 131.24 264.256 129.872 261.688 129.56C260.92 129.464 260.152 129.44 259.312 129.44H255.304V146H255.832V137.888H259.696C260.08 137.888 260.68 137.888 261.208 137.912C263.224 138.008 264.064 139.736 264.28 141.584C264.568 143.984 264.952 144.944 265.312 146H265.936C265.48 144.968 265.12 143.936 264.832 141.464ZM255.832 137.384V129.944H259.312C260.176 129.944 260.824 129.968 261.592 130.064C263.848 130.352 265.12 131.504 265.12 133.64C265.12 135.704 263.752 137.168 261.496 137.336C260.728 137.384 260.32 137.384 259.696 137.384H255.832ZM278.351 139.352C278.351 136.208 276.671 133.04 273.047 133.04C269.927 133.04 267.431 135.656 267.431 139.64C267.431 144.056 269.927 146.336 272.855 146.336C275.255 146.336 277.391 144.92 278.159 142.136H277.631C276.887 144.704 274.895 145.832 272.903 145.832C270.575 145.832 268.079 144.176 267.983 139.808H278.327C278.351 139.544 278.351 139.448 278.351 139.352ZM272.999 133.544C275.159 133.544 277.727 134.936 277.823 139.304H267.983C268.079 135.344 270.767 133.544 272.999 133.544ZM284.387 133.04C282.083 133.04 280.451 134.504 280.451 136.448C280.451 138.584 282.203 139.4 284.195 139.856C287.219 140.552 288.227 141.296 288.227 143.048C288.227 144.872 286.571 145.832 284.579 145.832C282.467 145.832 280.787 144.92 280.379 142.256H279.851C280.163 145.136 282.179 146.336 284.531 146.336C287.003 146.336 288.779 145.04 288.779 143.024C288.779 140.912 287.339 140 284.435 139.352C282.419 138.896 281.003 138.2 281.003 136.424C281.003 134.576 282.611 133.544 284.363 133.544C286.427 133.544 287.603 134.6 288.131 136.808H288.659C288.323 134.72 287.003 133.04 284.387 133.04ZM301.296 139.352C301.296 136.208 299.616 133.04 295.992 133.04C292.872 133.04 290.376 135.656 290.376 139.64C290.376 144.056 292.872 146.336 295.8 146.336C298.2 146.336 300.336 144.92 301.104 142.136H300.576C299.832 144.704 297.84 145.832 295.848 145.832C293.52 145.832 291.024 144.176 290.928 139.808H301.272C301.296 139.544 301.296 139.448 301.296 139.352ZM295.944 133.544C298.104 133.544 300.672 134.936 300.768 139.304H290.928C291.024 135.344 293.712 133.544 295.944 133.544ZM311.988 146H312.54C312.396 144.344 312.324 143.36 312.324 141.92V138.032C312.324 137.36 312.324 137.024 312.276 136.376C312.108 134.264 310.74 133.04 308.268 133.04C305.772 133.04 303.924 134.72 303.78 136.832H304.308C304.596 134.48 306.492 133.544 308.268 133.544C310.332 133.544 311.58 134.552 311.748 136.448C311.796 137 311.796 137.48 311.796 138.08V138.728H310.98C307.044 138.728 303.3 140 303.3 142.952C303.3 145.208 304.788 146.336 307.188 146.336C308.892 146.336 310.38 145.592 311.268 144.176L311.82 142.904L311.988 146ZM307.26 145.832C304.956 145.832 303.876 144.68 303.876 142.928C303.876 140.048 308.1 139.016 311.796 139.256V140.984C311.796 143.48 309.972 145.832 307.26 145.832ZM319.623 133.04C318.447 133.04 317.439 133.64 316.767 134.648L316.263 136.088V133.376H315.735V146H316.263V139.088C316.263 134.912 317.871 133.352 320.175 133.544V133.064C320.007 133.04 319.815 133.04 319.623 133.04ZM326.629 133.04C323.461 133.04 320.845 135.608 320.845 139.688C320.845 143.888 323.341 146.336 326.437 146.336C329.029 146.336 331.069 144.776 331.573 142.232H331.045C330.565 144.56 328.669 145.856 326.485 145.856C323.941 145.856 321.421 143.84 321.421 139.568C321.421 135.488 324.205 133.52 326.581 133.52C329.149 133.52 330.733 135.008 331.141 137.288H331.669C331.309 134.768 329.365 133.04 326.629 133.04ZM343.563 136.928C343.299 134.456 341.763 133.04 339.219 133.04C337.659 133.04 336.195 133.688 335.259 135.008L334.755 136.256V128.24H334.227V146H334.755V138.512C334.755 135.152 336.915 133.544 339.219 133.544C341.619 133.544 342.795 134.984 343.035 137.12C343.107 137.768 343.131 138.32 343.131 139.208V146H343.659V138.992C343.659 137.96 343.635 137.576 343.563 136.928Z" fill="white"/>
<circle cx="299" cy="138" r="81.5" stroke="white"/>
<circle cx="516" cy="138" r="81.5" stroke="white"/>
<path d="M488.304 139.544L490.8 146H491.376L484.968 129.44H484.272L477.864 146H478.416L480.888 139.544H488.304ZM481.08 139.04L484.608 129.896L488.088 139.04H481.08ZM502.829 136.928C502.565 134.456 501.029 133.04 498.485 133.04C496.925 133.04 495.461 133.688 494.525 135.008L494.021 136.256V133.376H493.493V146H494.021V138.512C494.021 135.152 496.181 133.544 498.485 133.544C500.885 133.544 502.061 134.984 502.301 137.12C502.373 137.768 502.397 138.32 502.397 139.208V146H502.925V138.992C502.925 137.96 502.901 137.576 502.829 136.928ZM514.332 146H514.884C514.74 144.344 514.668 143.36 514.668 141.92V138.032C514.668 137.36 514.668 137.024 514.62 136.376C514.452 134.264 513.084 133.04 510.612 133.04C508.116 133.04 506.268 134.72 506.124 136.832H506.652C506.94 134.48 508.836 133.544 510.612 133.544C512.676 133.544 513.924 134.552 514.092 136.448C514.14 137 514.14 137.48 514.14 138.08V138.728H513.324C509.388 138.728 505.644 140 505.644 142.952C505.644 145.208 507.132 146.336 509.532 146.336C511.236 146.336 512.724 145.592 513.612 144.176L514.164 142.904L514.332 146ZM509.604 145.832C507.3 145.832 506.22 144.68 506.22 142.928C506.22 140.048 510.444 139.016 514.14 139.256V140.984C514.14 143.48 512.316 145.832 509.604 145.832ZM518.535 128.36H518.007V143.12C518.007 144.032 518.007 144.416 518.031 144.896C518.079 145.856 518.559 146.12 519.207 146.12C519.447 146.12 519.663 146.12 519.903 146.072V145.616C518.919 145.736 518.607 145.568 518.559 144.776C518.535 144.44 518.535 143.96 518.535 143.12V128.36ZM531.299 133.376H530.699L526.067 145.568L521.435 133.376H520.835L525.779 146.24L525.371 147.248C524.291 149.888 523.379 150.56 522.419 150.56C522.107 150.56 521.795 150.536 521.483 150.464V150.944C521.747 151.016 521.987 151.04 522.323 151.04C523.715 151.04 524.723 150.44 526.427 146L531.299 133.376ZM541.62 145.544H532.476L541.548 134.048V133.568H532.452V134.072H540.852L531.804 145.568V146H541.62V145.544ZM553.656 139.352C553.656 136.208 551.976 133.04 548.352 133.04C545.232 133.04 542.736 135.656 542.736 139.64C542.736 144.056 545.232 146.336 548.16 146.336C550.56 146.336 552.696 144.92 553.464 142.136H552.936C552.192 144.704 550.2 145.832 548.208 145.832C545.88 145.832 543.384 144.176 543.288 139.808H553.632C553.656 139.544 553.656 139.448 553.656 139.352ZM548.304 133.544C550.464 133.544 553.032 134.936 553.128 139.304H543.288C543.384 135.344 546.072 133.544 548.304 133.544Z" fill="white"/>
<path d="M705.832 129.488C705.232 129.44 704.848 129.44 704.08 129.44H699.304V146H704.08C704.848 146 705.352 146 706.192 145.904C708.424 145.64 712.384 143.48 712.384 137.648C712.384 131.792 708.376 129.68 705.832 129.488ZM706.12 145.4C705.328 145.496 704.824 145.496 704.08 145.496H699.832V129.944H704.08C704.944 129.944 705.28 129.944 705.808 129.992C708.424 130.232 711.808 132.44 711.808 137.648C711.808 142.616 708.736 145.088 706.12 145.4ZM724.929 139.352C724.929 136.208 723.249 133.04 719.625 133.04C716.505 133.04 714.009 135.656 714.009 139.64C714.009 144.056 716.505 146.336 719.433 146.336C721.833 146.336 723.969 144.92 724.737 142.136H724.209C723.465 144.704 721.473 145.832 719.481 145.832C717.153 145.832 714.657 144.176 714.561 139.808H724.905C724.929 139.544 724.929 139.448 724.929 139.352ZM719.577 133.544C721.737 133.544 724.305 134.936 724.401 139.304H714.561C714.657 135.344 717.345 133.544 719.577 133.544ZM730.965 133.04C728.661 133.04 727.029 134.504 727.029 136.448C727.029 138.584 728.781 139.4 730.773 139.856C733.797 140.552 734.805 141.296 734.805 143.048C734.805 144.872 733.149 145.832 731.157 145.832C729.045 145.832 727.365 144.92 726.957 142.256H726.429C726.741 145.136 728.757 146.336 731.109 146.336C733.581 146.336 735.357 145.04 735.357 143.024C735.357 140.912 733.917 140 731.013 139.352C728.997 138.896 727.581 138.2 727.581 136.424C727.581 134.576 729.189 133.544 730.941 133.544C733.005 133.544 734.181 134.6 734.709 136.808H735.237C734.901 134.72 733.581 133.04 730.965 133.04ZM738.202 130.328C737.938 130.328 737.722 130.544 737.722 130.808C737.722 131.072 737.938 131.288 738.202 131.288C738.466 131.288 738.682 131.072 738.682 130.808C738.682 130.544 738.466 130.328 738.202 130.328ZM738.466 146V133.376H737.938V146H738.466ZM751.524 133.28H750.996V136.256L750.3 134.672C749.268 133.52 748.236 133.04 746.628 133.04C743.58 133.04 740.892 135.32 740.892 139.784C740.892 143.624 743.052 146.336 746.34 146.336C748.068 146.336 749.196 145.904 750.324 144.56L750.996 143.12V143.6C750.996 144.776 750.996 145.424 750.972 146.264C750.9 148.904 749.34 150.776 746.364 150.776C744.276 150.776 742.332 149.912 742.02 147.488L741.972 147.128H741.444L741.492 147.488C741.876 150.344 743.988 151.28 746.316 151.28C749.532 151.28 751.404 149.288 751.5 146.432C751.524 145.616 751.524 144.632 751.524 142.64V133.28ZM746.388 145.832C743.196 145.832 741.468 143 741.468 139.688C741.468 136.064 743.604 133.544 746.628 133.544C748.596 133.544 750.996 134.744 750.996 138.872V140.288C750.996 144.44 748.884 145.832 746.388 145.832ZM764.267 136.928C764.003 134.456 762.467 133.04 759.923 133.04C758.363 133.04 756.899 133.688 755.963 135.008L755.459 136.256V133.376H754.931V146H755.459V138.512C755.459 135.152 757.619 133.544 759.923 133.544C762.323 133.544 763.499 134.984 763.739 137.12C763.811 137.768 763.835 138.32 763.835 139.208V146H764.363V138.992C764.363 137.96 764.339 137.576 764.267 136.928Z" fill="white"/>
<circle cx="732" cy="138" r="81.5" stroke="white"/>
<path d="M940.968 129.92V129.44H927.768V129.92H934.104V146H934.632V129.92H940.968ZM950.828 139.352C950.828 136.208 949.148 133.04 945.523 133.04C942.404 133.04 939.908 135.656 939.908 139.64C939.908 144.056 942.404 146.336 945.332 146.336C947.732 146.336 949.868 144.92 950.636 142.136H950.108C949.364 144.704 947.372 145.832 945.38 145.832C943.052 145.832 940.556 144.176 940.46 139.808H950.804C950.828 139.544 950.828 139.448 950.828 139.352ZM945.476 133.544C947.636 133.544 950.204 134.936 950.3 139.304H940.46C940.556 135.344 943.244 133.544 945.476 133.544ZM956.863 133.04C954.559 133.04 952.927 134.504 952.927 136.448C952.927 138.584 954.679 139.4 956.671 139.856C959.695 140.552 960.703 141.296 960.703 143.048C960.703 144.872 959.047 145.832 957.055 145.832C954.943 145.832 953.263 144.92 952.855 142.256H952.327C952.639 145.136 954.655 146.336 957.007 146.336C959.479 146.336 961.255 145.04 961.255 143.024C961.255 140.912 959.815 140 956.911 139.352C954.895 138.896 953.479 138.2 953.479 136.424C953.479 134.576 955.087 133.544 956.839 133.544C958.903 133.544 960.079 134.6 960.607 136.808H961.135C960.799 134.72 959.479 133.04 956.863 133.04ZM964.869 144.296C964.845 143.96 964.845 143.6 964.845 142.928V133.904H967.317V133.472H964.845V130.88H964.317V133.472H962.805V133.904H964.317V142.832C964.317 143.552 964.317 143.96 964.365 144.536C964.461 145.64 965.061 146.168 966.189 146.168C966.597 146.168 967.077 146.144 967.389 146.096V145.664C965.517 145.928 964.965 145.544 964.869 144.296Z" fill="white"/>
<circle cx="949" cy="138" r="81.5" stroke="white"/>
<path d="M1140.83 129.488C1140.23 129.44 1139.85 129.44 1139.08 129.44H1134.3V146H1139.08C1139.85 146 1140.35 146 1141.19 145.904C1143.42 145.64 1147.38 143.48 1147.38 137.648C1147.38 131.792 1143.38 129.68 1140.83 129.488ZM1141.12 145.4C1140.33 145.496 1139.82 145.496 1139.08 145.496H1134.83V129.944H1139.08C1139.94 129.944 1140.28 129.944 1140.81 129.992C1143.42 130.232 1146.81 132.44 1146.81 137.648C1146.81 142.616 1143.74 145.088 1141.12 145.4ZM1159.93 139.352C1159.93 136.208 1158.25 133.04 1154.63 133.04C1151.51 133.04 1149.01 135.656 1149.01 139.64C1149.01 144.056 1151.51 146.336 1154.43 146.336C1156.83 146.336 1158.97 144.92 1159.74 142.136H1159.21C1158.47 144.704 1156.47 145.832 1154.48 145.832C1152.15 145.832 1149.66 144.176 1149.56 139.808H1159.91C1159.93 139.544 1159.93 139.448 1159.93 139.352ZM1154.58 133.544C1156.74 133.544 1159.31 134.936 1159.4 139.304H1149.56C1149.66 135.344 1152.35 133.544 1154.58 133.544ZM1162.96 128.36H1162.44V143.12C1162.44 144.032 1162.44 144.416 1162.46 144.896C1162.51 145.856 1162.99 146.12 1163.64 146.12C1163.88 146.12 1164.09 146.12 1164.33 146.072V145.616C1163.35 145.736 1163.04 145.568 1162.99 144.776C1162.96 144.44 1162.96 143.96 1162.96 143.12V128.36ZM1166.92 130.328C1166.66 130.328 1166.44 130.544 1166.44 130.808C1166.44 131.072 1166.66 131.288 1166.92 131.288C1167.19 131.288 1167.4 131.072 1167.4 130.808C1167.4 130.544 1167.19 130.328 1166.92 130.328ZM1167.19 146V133.376H1166.66V146H1167.19ZM1179.93 133.376H1179.33L1174.58 145.544L1169.8 133.376H1169.2L1174.19 146H1174.94L1179.93 133.376ZM1191.76 139.352C1191.76 136.208 1190.08 133.04 1186.45 133.04C1183.33 133.04 1180.84 135.656 1180.84 139.64C1180.84 144.056 1183.33 146.336 1186.26 146.336C1188.66 146.336 1190.8 144.92 1191.57 142.136H1191.04C1190.29 144.704 1188.3 145.832 1186.31 145.832C1183.98 145.832 1181.49 144.176 1181.39 139.808H1191.73C1191.76 139.544 1191.76 139.448 1191.76 139.352ZM1186.41 133.544C1188.57 133.544 1191.13 134.936 1191.23 139.304H1181.39C1181.49 135.344 1184.17 133.544 1186.41 133.544ZM1198.22 133.04C1197.05 133.04 1196.04 133.64 1195.37 134.648L1194.86 136.088V133.376H1194.34V146H1194.86V139.088C1194.86 134.912 1196.47 133.352 1198.78 133.544V133.064C1198.61 133.04 1198.42 133.04 1198.22 133.04Z" fill="white"/>
<circle cx="1166" cy="138" r="81.5" stroke="white"/>
<circle r="32" transform="matrix(1 0 0 -1 793.5 209.5)" stroke="white" stroke-opacity="0.1"/>
<circle r="32.5" transform="matrix(1 0 0 -1 843 229)" stroke="white" stroke-opacity="0.3"/>
<circle r="32" transform="matrix(1 0 0 -1 892.5 209.5)" stroke="white" stroke-opacity="0.5"/>
<circle r="32" transform="matrix(-1 0 0 1 892.5 52.5)" stroke="white" stroke-opacity="0.1"/>
<circle r="32.5" transform="matrix(-1 0 0 1 843 33)" stroke="white" stroke-opacity="0.3"/>
<circle r="32" transform="matrix(-1 0 0 1 793.5 52.5)" stroke="white" stroke-opacity="0.5"/>
</svg>
