<svg width="343" height="265" viewBox="0 0 343 265" fill="none" xmlns="http://www.w3.org/2000/svg">
<circle cx="45" cy="45" r="44.5" stroke="white"/>
<path d="M27.7881 38.616C27.3381 38.58 27.0501 38.58 26.4741 38.58H22.8921V51H26.4741C27.0501 51 27.4281 51 28.0581 50.928C29.7321 50.73 32.7021 49.11 32.7021 44.736C32.7021 40.344 29.6961 38.76 27.7881 38.616ZM28.0041 50.55C27.4101 50.622 27.0321 50.622 26.4741 50.622H23.2881V38.958H26.4741C27.1221 38.958 27.3741 38.958 27.7701 38.994C29.7321 39.174 32.2701 40.83 32.2701 44.736C32.2701 48.462 29.9661 50.316 28.0041 50.55ZM42.1109 46.014C42.1109 43.656 40.8509 41.28 38.1329 41.28C35.7929 41.28 33.9209 43.242 33.9209 46.23C33.9209 49.542 35.7929 51.252 37.9889 51.252C39.7889 51.252 41.3909 50.19 41.9669 48.102H41.5709C41.0129 50.028 39.5189 50.874 38.0249 50.874C36.2789 50.874 34.4069 49.632 34.3349 46.356H42.0929C42.1109 46.158 42.1109 46.086 42.1109 46.014ZM38.0969 41.658C39.7169 41.658 41.6429 42.702 41.7149 45.978H34.3349C34.4069 43.008 36.4229 41.658 38.0969 41.658ZM48.6176 41.604H44.6396V40.812C44.6396 40.542 44.6396 40.308 44.6756 39.912C44.7836 38.688 45.8096 37.572 48.2216 37.896V37.518C47.8976 37.446 47.7356 37.428 47.3756 37.428C45.5396 37.428 44.4056 38.49 44.2796 39.858C44.2436 40.236 44.2436 40.542 44.2436 40.812V41.604H43.2176V41.982H44.2436V51H44.6396V41.982H48.2216V51H48.6176V41.604ZM58.1843 44.196C57.9863 42.342 56.8343 41.28 54.9263 41.28C53.7563 41.28 52.6583 41.766 51.9563 42.756L51.5783 43.692V41.532H51.1823V51H51.5783V45.384C51.5783 42.864 53.1983 41.658 54.9263 41.658C56.7263 41.658 57.6083 42.738 57.7883 44.34C57.8423 44.826 57.8603 45.24 57.8603 45.906V51H58.2563V45.744C58.2563 44.97 58.2383 44.682 58.1843 44.196ZM68.1792 46.014C68.1792 43.656 66.9192 41.28 64.2012 41.28C61.8612 41.28 59.9892 43.242 59.9892 46.23C59.9892 49.542 61.8612 51.252 64.0572 51.252C65.8572 51.252 67.4592 50.19 68.0352 48.102H67.6392C67.0812 50.028 65.5872 50.874 64.0932 50.874C62.3472 50.874 60.4752 49.632 60.4032 46.356H68.1612C68.1792 46.158 68.1792 46.086 68.1792 46.014ZM64.1652 41.658C65.7852 41.658 67.7112 42.702 67.7832 45.978H60.4032C60.4752 43.008 62.4912 41.658 64.1652 41.658Z" fill="white"/>
<path d="M101 44.619H117M117 44.619L109.381 37M117 44.619L109.381 52.2381" stroke="white"/>
<path d="M227 44.619H243M243 44.619L235.381 37M243 44.619L235.381 52.2381" stroke="white"/>
<path d="M145.874 47.598C145.712 46.158 145.082 45.06 143.93 44.736C145.55 44.448 146.522 43.296 146.522 41.712C146.522 39.93 145.442 38.904 143.516 38.67C142.94 38.598 142.364 38.58 141.734 38.58H138.728V51H139.124V44.916H142.022C142.31 44.916 142.76 44.916 143.156 44.934C144.668 45.006 145.298 46.302 145.46 47.688C145.676 49.488 145.964 50.208 146.234 51H146.702C146.36 50.226 146.09 49.452 145.874 47.598ZM139.124 44.538V38.958H141.734C142.382 38.958 142.868 38.976 143.444 39.048C145.136 39.264 146.09 40.128 146.09 41.73C146.09 43.278 145.064 44.376 143.372 44.502C142.796 44.538 142.49 44.538 142.022 44.538H139.124ZM156.013 46.014C156.013 43.656 154.753 41.28 152.035 41.28C149.695 41.28 147.823 43.242 147.823 46.23C147.823 49.542 149.695 51.252 151.891 51.252C153.691 51.252 155.293 50.19 155.869 48.102H155.473C154.915 50.028 153.421 50.874 151.927 50.874C150.181 50.874 148.309 49.632 148.237 46.356H155.995C156.013 46.158 156.013 46.086 156.013 46.014ZM151.999 41.658C153.619 41.658 155.545 42.702 155.617 45.978H148.237C148.309 43.008 150.325 41.658 151.999 41.658ZM160.54 41.28C158.812 41.28 157.588 42.378 157.588 43.836C157.588 45.438 158.902 46.05 160.396 46.392C162.664 46.914 163.42 47.472 163.42 48.786C163.42 50.154 162.178 50.874 160.684 50.874C159.1 50.874 157.84 50.19 157.534 48.192H157.138C157.372 50.352 158.884 51.252 160.648 51.252C162.502 51.252 163.834 50.28 163.834 48.768C163.834 47.184 162.754 46.5 160.576 46.014C159.064 45.672 158.002 45.15 158.002 43.818C158.002 42.432 159.208 41.658 160.522 41.658C162.07 41.658 162.952 42.45 163.348 44.106H163.744C163.492 42.54 162.502 41.28 160.54 41.28ZM173.222 46.014C173.222 43.656 171.962 41.28 169.244 41.28C166.904 41.28 165.032 43.242 165.032 46.23C165.032 49.542 166.904 51.252 169.1 51.252C170.9 51.252 172.502 50.19 173.078 48.102H172.682C172.124 50.028 170.63 50.874 169.136 50.874C167.39 50.874 165.518 49.632 165.446 46.356H173.204C173.222 46.158 173.222 46.086 173.222 46.014ZM169.208 41.658C170.828 41.658 172.754 42.702 172.826 45.978H165.446C165.518 43.008 167.534 41.658 169.208 41.658ZM181.241 51H181.655C181.547 49.758 181.493 49.02 181.493 47.94V45.024C181.493 44.52 181.493 44.268 181.457 43.782C181.331 42.198 180.305 41.28 178.451 41.28C176.579 41.28 175.193 42.54 175.085 44.124H175.481C175.697 42.36 177.119 41.658 178.451 41.658C179.999 41.658 180.935 42.414 181.061 43.836C181.097 44.25 181.097 44.61 181.097 45.06V45.546H180.485C177.533 45.546 174.725 46.5 174.725 48.714C174.725 50.406 175.841 51.252 177.641 51.252C178.919 51.252 180.035 50.694 180.701 49.632L181.115 48.678L181.241 51ZM177.695 50.874C175.967 50.874 175.157 50.01 175.157 48.696C175.157 46.536 178.325 45.762 181.097 45.942V47.238C181.097 49.11 179.729 50.874 177.695 50.874ZM186.967 41.28C186.085 41.28 185.329 41.73 184.825 42.486L184.447 43.566V41.532H184.051V51H184.447V45.816C184.447 42.684 185.653 41.514 187.381 41.658V41.298C187.255 41.28 187.111 41.28 186.967 41.28ZM192.222 41.28C189.846 41.28 187.884 43.206 187.884 46.266C187.884 49.416 189.756 51.252 192.078 51.252C194.022 51.252 195.552 50.082 195.93 48.174H195.534C195.174 49.92 193.752 50.892 192.114 50.892C190.206 50.892 188.316 49.38 188.316 46.176C188.316 43.116 190.404 41.64 192.186 41.64C194.112 41.64 195.3 42.756 195.606 44.466H196.002C195.732 42.576 194.274 41.28 192.222 41.28ZM204.923 44.196C204.725 42.342 203.573 41.28 201.665 41.28C200.495 41.28 199.397 41.766 198.695 42.756L198.317 43.692V37.68H197.921V51H198.317V45.384C198.317 42.864 199.937 41.658 201.665 41.658C203.465 41.658 204.347 42.738 204.527 44.34C204.581 44.826 204.599 45.24 204.599 45.906V51H204.995V45.744C204.995 44.97 204.977 44.682 204.923 44.196Z" fill="white"/>
<circle cx="172" cy="45" r="44.5" stroke="white"/>
<circle cx="297" cy="45" r="44.5" stroke="white"/>
<path d="M276.478 46.158L278.35 51H278.782L273.976 38.58H273.454L268.648 51H269.062L270.916 46.158H276.478ZM271.06 45.78L273.706 38.922L276.316 45.78H271.06ZM287.372 44.196C287.174 42.342 286.022 41.28 284.114 41.28C282.944 41.28 281.846 41.766 281.144 42.756L280.766 43.692V41.532H280.37V51H280.766V45.384C280.766 42.864 282.386 41.658 284.114 41.658C285.914 41.658 286.796 42.738 286.976 44.34C287.03 44.826 287.048 45.24 287.048 45.906V51H287.444V45.744C287.444 44.97 287.426 44.682 287.372 44.196ZM295.999 51H296.413C296.305 49.758 296.251 49.02 296.251 47.94V45.024C296.251 44.52 296.251 44.268 296.215 43.782C296.089 42.198 295.063 41.28 293.209 41.28C291.337 41.28 289.951 42.54 289.843 44.124H290.239C290.455 42.36 291.877 41.658 293.209 41.658C294.757 41.658 295.693 42.414 295.819 43.836C295.855 44.25 295.855 44.61 295.855 45.06V45.546H295.243C292.291 45.546 289.483 46.5 289.483 48.714C289.483 50.406 290.599 51.252 292.399 51.252C293.677 51.252 294.793 50.694 295.459 49.632L295.873 48.678L295.999 51ZM292.453 50.874C290.725 50.874 289.915 50.01 289.915 48.696C289.915 46.536 293.083 45.762 295.855 45.942V47.238C295.855 49.11 294.487 50.874 292.453 50.874ZM299.151 37.77H298.755V48.84C298.755 49.524 298.755 49.812 298.773 50.172C298.809 50.892 299.169 51.09 299.655 51.09C299.835 51.09 299.997 51.09 300.177 51.054V50.712C299.439 50.802 299.205 50.676 299.169 50.082C299.151 49.83 299.151 49.47 299.151 48.84V37.77ZM308.725 41.532H308.275L304.801 50.676L301.327 41.532H300.877L304.585 51.18L304.279 51.936C303.469 53.916 302.785 54.42 302.065 54.42C301.831 54.42 301.597 54.402 301.363 54.348V54.708C301.561 54.762 301.741 54.78 301.993 54.78C303.037 54.78 303.793 54.33 305.071 51L308.725 41.532ZM316.465 50.658H309.607L316.411 42.036V41.676H309.589V42.054H315.889L309.103 50.676V51H316.465V50.658ZM325.492 46.014C325.492 43.656 324.232 41.28 321.514 41.28C319.174 41.28 317.302 43.242 317.302 46.23C317.302 49.542 319.174 51.252 321.37 51.252C323.17 51.252 324.772 50.19 325.348 48.102H324.952C324.394 50.028 322.9 50.874 321.406 50.874C319.66 50.874 317.788 49.632 317.716 46.356H325.474C325.492 46.158 325.492 46.086 325.492 46.014ZM321.478 41.658C323.098 41.658 325.024 42.702 325.096 45.978H317.716C317.788 43.008 319.804 41.658 321.478 41.658Z" fill="white"/>
<path d="M26.624 176.616C26.174 176.58 25.886 176.58 25.31 176.58H21.728V189H25.31C25.886 189 26.264 189 26.894 188.928C28.568 188.73 31.538 187.11 31.538 182.736C31.538 178.344 28.532 176.76 26.624 176.616ZM26.84 188.55C26.246 188.622 25.868 188.622 25.31 188.622H22.124V176.958H25.31C25.958 176.958 26.21 176.958 26.606 176.994C28.568 177.174 31.106 178.83 31.106 182.736C31.106 186.462 28.802 188.316 26.84 188.55ZM40.9468 184.014C40.9468 181.656 39.6868 179.28 36.9688 179.28C34.6288 179.28 32.7568 181.242 32.7568 184.23C32.7568 187.542 34.6288 189.252 36.8248 189.252C38.6248 189.252 40.2268 188.19 40.8028 186.102H40.4068C39.8488 188.028 38.3548 188.874 36.8608 188.874C35.1148 188.874 33.2428 187.632 33.1708 184.356H40.9288C40.9468 184.158 40.9468 184.086 40.9468 184.014ZM36.9328 179.658C38.5528 179.658 40.4788 180.702 40.5508 183.978H33.1708C33.2428 181.008 35.2588 179.658 36.9328 179.658ZM45.4735 179.28C43.7455 179.28 42.5215 180.378 42.5215 181.836C42.5215 183.438 43.8355 184.05 45.3295 184.392C47.5975 184.914 48.3535 185.472 48.3535 186.786C48.3535 188.154 47.1115 188.874 45.6175 188.874C44.0335 188.874 42.7735 188.19 42.4675 186.192H42.0715C42.3055 188.352 43.8175 189.252 45.5815 189.252C47.4355 189.252 48.7675 188.28 48.7675 186.768C48.7675 185.184 47.6875 184.5 45.5095 184.014C43.9975 183.672 42.9355 183.15 42.9355 181.818C42.9355 180.432 44.1415 179.658 45.4555 179.658C47.0035 179.658 47.8855 180.45 48.2815 182.106H48.6775C48.4255 180.54 47.4355 179.28 45.4735 179.28ZM50.9018 177.246C50.7038 177.246 50.5418 177.408 50.5418 177.606C50.5418 177.804 50.7038 177.966 50.9018 177.966C51.0998 177.966 51.2618 177.804 51.2618 177.606C51.2618 177.408 51.0998 177.246 50.9018 177.246ZM51.0998 189V179.532H50.7038V189H51.0998ZM60.8929 179.46H60.4969V181.692L59.9749 180.504C59.2009 179.64 58.4269 179.28 57.2209 179.28C54.9349 179.28 52.9189 180.99 52.9189 184.338C52.9189 187.218 54.5389 189.252 57.0049 189.252C58.3009 189.252 59.1469 188.928 59.9929 187.92L60.4969 186.84V187.2C60.4969 188.082 60.4969 188.568 60.4789 189.198C60.4249 191.178 59.2549 192.582 57.0229 192.582C55.4569 192.582 53.9989 191.934 53.7649 190.116L53.7289 189.846H53.3329L53.3689 190.116C53.6569 192.258 55.2409 192.96 56.9869 192.96C59.3989 192.96 60.8029 191.466 60.8749 189.324C60.8929 188.712 60.8929 187.974 60.8929 186.48V179.46ZM57.0409 188.874C54.6469 188.874 53.3509 186.75 53.3509 184.266C53.3509 181.548 54.9529 179.658 57.2209 179.658C58.6969 179.658 60.4969 180.558 60.4969 183.654V184.716C60.4969 187.83 58.9129 188.874 57.0409 188.874ZM70.4499 182.196C70.2519 180.342 69.0999 179.28 67.1919 179.28C66.0219 179.28 64.9239 179.766 64.2219 180.756L63.8439 181.692V179.532H63.4479V189H63.8439V183.384C63.8439 180.864 65.4639 179.658 67.1919 179.658C68.9919 179.658 69.8739 180.738 70.0539 182.34C70.1079 182.826 70.1259 183.24 70.1259 183.906V189H70.5219V183.744C70.5219 182.97 70.5039 182.682 70.4499 182.196Z" fill="white"/>
<circle cx="46" cy="182.341" r="44.5" stroke="white"/>
<path d="M278.624 177.616C278.174 177.58 277.886 177.58 277.31 177.58H273.728V190H277.31C277.886 190 278.264 190 278.894 189.928C280.568 189.73 283.538 188.11 283.538 183.736C283.538 179.344 280.532 177.76 278.624 177.616ZM278.84 189.55C278.246 189.622 277.868 189.622 277.31 189.622H274.124V177.958H277.31C277.958 177.958 278.21 177.958 278.606 177.994C280.568 178.174 283.106 179.83 283.106 183.736C283.106 187.462 280.802 189.316 278.84 189.55ZM292.947 185.014C292.947 182.656 291.687 180.28 288.969 180.28C286.629 180.28 284.757 182.242 284.757 185.23C284.757 188.542 286.629 190.252 288.825 190.252C290.625 190.252 292.227 189.19 292.803 187.102H292.407C291.849 189.028 290.355 189.874 288.861 189.874C287.115 189.874 285.243 188.632 285.171 185.356H292.929C292.947 185.158 292.947 185.086 292.947 185.014ZM288.933 180.658C290.553 180.658 292.479 181.702 292.551 184.978H285.171C285.243 182.008 287.259 180.658 288.933 180.658ZM295.224 176.77H294.828V187.84C294.828 188.524 294.828 188.812 294.846 189.172C294.882 189.892 295.242 190.09 295.728 190.09C295.908 190.09 296.07 190.09 296.25 190.054V189.712C295.512 189.802 295.278 189.676 295.242 189.082C295.224 188.83 295.224 188.47 295.224 187.84V176.77ZM298.191 178.246C297.993 178.246 297.831 178.408 297.831 178.606C297.831 178.804 297.993 178.966 298.191 178.966C298.389 178.966 298.551 178.804 298.551 178.606C298.551 178.408 298.389 178.246 298.191 178.246ZM298.389 190V180.532H297.993V190H298.389ZM307.948 180.532H307.498L303.934 189.658L300.352 180.532H299.902L303.646 190H304.204L307.948 180.532ZM316.818 185.014C316.818 182.656 315.558 180.28 312.84 180.28C310.5 180.28 308.628 182.242 308.628 185.23C308.628 188.542 310.5 190.252 312.696 190.252C314.496 190.252 316.098 189.19 316.674 187.102H316.278C315.72 189.028 314.226 189.874 312.732 189.874C310.986 189.874 309.114 188.632 309.042 185.356H316.8C316.818 185.158 316.818 185.086 316.818 185.014ZM312.804 180.658C314.424 180.658 316.35 181.702 316.422 184.978H309.042C309.114 182.008 311.13 180.658 312.804 180.658ZM321.669 180.28C320.787 180.28 320.031 180.73 319.527 181.486L319.149 182.566V180.532H318.753V190H319.149V184.816C319.149 181.684 320.355 180.514 322.083 180.658V180.298C321.957 180.28 321.813 180.28 321.669 180.28Z" fill="white"/>
<circle cx="298" cy="183" r="44.5" stroke="white"/>
<path d="M166.476 176.94V176.58H156.576V176.94H161.328V189H161.724V176.94H166.476ZM173.871 184.014C173.871 181.656 172.611 179.28 169.893 179.28C167.553 179.28 165.681 181.242 165.681 184.23C165.681 187.542 167.553 189.252 169.749 189.252C171.549 189.252 173.151 188.19 173.727 186.102H173.331C172.773 188.028 171.279 188.874 169.785 188.874C168.039 188.874 166.167 187.632 166.095 184.356H173.853C173.871 184.158 173.871 184.086 173.871 184.014ZM169.857 179.658C171.477 179.658 173.403 180.702 173.475 183.978H166.095C166.167 181.008 168.183 179.658 169.857 179.658ZM178.397 179.28C176.669 179.28 175.445 180.378 175.445 181.836C175.445 183.438 176.759 184.05 178.253 184.392C180.521 184.914 181.277 185.472 181.277 186.786C181.277 188.154 180.035 188.874 178.541 188.874C176.957 188.874 175.697 188.19 175.391 186.192H174.995C175.229 188.352 176.741 189.252 178.505 189.252C180.359 189.252 181.691 188.28 181.691 186.768C181.691 185.184 180.611 184.5 178.433 184.014C176.921 183.672 175.859 183.15 175.859 181.818C175.859 180.432 177.065 179.658 178.379 179.658C179.927 179.658 180.809 180.45 181.205 182.106H181.601C181.349 180.54 180.359 179.28 178.397 179.28ZM184.402 187.722C184.384 187.47 184.384 187.2 184.384 186.696V179.928H186.238V179.604H184.384V177.66H183.988V179.604H182.854V179.928H183.988V186.624C183.988 187.164 183.988 187.47 184.024 187.902C184.096 188.73 184.546 189.126 185.392 189.126C185.698 189.126 186.058 189.108 186.292 189.072V188.748C184.888 188.946 184.474 188.658 184.402 187.722Z" fill="white"/>
<circle cx="172" cy="182.341" r="44.5" stroke="white"/>
<path d="M227 182.619H243M243 182.619L235.381 175M243 182.619L235.381 190.238" stroke="white"/>
<path d="M101 182.619H117M117 182.619L109.381 175M117 182.619L109.381 190.238" stroke="white"/>
<circle r="22.7306" transform="matrix(1 0 0 -1 75.6178 227.156)" stroke="white" stroke-opacity="0.1"/>
<circle r="23.088" transform="matrix(1 0 0 -1 111 241.095)" stroke="white" stroke-opacity="0.3"/>
<circle r="22.7306" transform="matrix(1 0 0 -1 146.382 227.156)" stroke="white" stroke-opacity="0.5"/>
<circle r="22.7306" transform="matrix(-1 0 0 1 146.382 143.526)" stroke="white" stroke-opacity="0.1"/>
<circle r="23.088" transform="matrix(-1 0 0 1 111 129.588)" stroke="white" stroke-opacity="0.3"/>
<circle r="22.7306" transform="matrix(-1 0 0 1 75.618 143.526)" stroke="white" stroke-opacity="0.5"/>
</svg>
